<?xml version="1.0" encoding="utf-8"?>
<!-- Generator: Adobe Illustrator 19.0.0, SVG Export Plug-In . SVG Version: 6.00 Build 0)  -->
<svg version="1.1" id="Layer_1" xmlns="http://www.w3.org/2000/svg" xmlns:xlink="http://www.w3.org/1999/xlink" x="0px" y="0px"
	 viewBox="38 -280.7 336.9 821.7" style="enable-background:new 38 -280.7 336.9 821.7;" xml:space="preserve">
<style type="text/css">
	.st0{fill:#955CF1;}
	.st1{fill:#EDEEEF;}
	.st2{fill:none;stroke:#000000;stroke-width:1.5;stroke-linecap:round;stroke-linejoin:round;}
	.st3{fill:none;stroke:#955CF1;stroke-miterlimit:10;}
</style>
<path class="st0" d="M231.2,71.8c0,0,164.1,124.1,141.6,184.1s-135,120-135,120l-6.6,34.5l-64.1-70.5l64.1-112.5
	c0,0-55.3-15-64.1-42S137.6,34.8,137.6,34.8"/>
<circle class="st0" cx="168.1" cy="-204.9" r="16.3"/>
<path class="st0" d="M204.5,38c0,0,20.2,329.5-36.8,485.5l11.9,17.5H78.2c0,0-11.1-419.1-11.1-509.5L204.5,38z"/>
<path class="st1" d="M176.3-216.9v42.8l-53,13v-72.3l53-13V-216.9z"/>
<circle cx="146.4" cy="-203.5" r="1.4"/>
<circle cx="168.1" cy="-203.5" r="1.4"/>
<path class="st2" d="M161.8-195.1v-21.9h10.9"/>
<path class="st2" d="M143.7-216.9h10.9"/>
<path class="st1" d="M126.8-205.7v7.6c-4.1,0-7.4-3.3-7.4-7.4c0-0.2,0-0.5,0-0.7C119.8-210.8,126.8-210.3,126.8-205.7z"/>
<g>
	<path class="st2" d="M126.8-198.1c-4.1,0-7.4-3.3-7.4-7.4"/>
	<path class="st3" d="M157-189.7c-4.1,0-7.5-3.4-7.5-7.5"/>
	<g>
		<path class="st2" d="M176.3-174.1l-53,13"/>
		<path class="st2" d="M161.8-195l-4.8,1.2"/>
		<path class="st2" d="M127.9-207.6c0,0,5.8-4.1,4.8-12.9c-1-8.8,0-16.9,13.7-18.5c10-1,20-1.5,30-1.4"/>
		<path class="st2" d="M176.3-220.5c0,0,26.4-47.6-24.2-57.6S85-255.8,88.2-230.9c3.5,27.1,20.7,35,34.9,39.5"/>
	</g>
</g>
<path class="st1" d="M67.1-84.4V31.5l164.1,40.3v-129c0-45.7-31.2-85.6-75.6-96.5h0c-38.3-9.4-77,14-86.4,52.3
	C67.8-95.8,67.1-90.1,67.1-84.4L67.1-84.4z"/>
<circle class="st0" cx="116.8" cy="-204.9" r="16.3"/>
<g>
	<path class="st2" d="M133.1-204.9c0,9-7.3,16.3-16.3,16.3c-9,0-16.3-7.3-16.3-16.3"/>
	<path class="st2" d="M204.5,38c0,0,20.2,329.5-36.8,485.5"/>
	<path class="st2" d="M91.1-137.7c0,0-43.9,30.6-51.9,110.6s92,150,198,34c0,0,31-23,32-42s-38,4.2-38,4.2s11-6.2,0-7.2
		s-13,10.3-13,10.3l-94.9,16.2l14.3-60"/>
</g>
<path d="M68.1,47.5v63.4c74.9,17.5,117.7-61.1,117.7-61.1h0C137.9,78,95,71,68.1,47.5z"/>
<path d="M231.2-38.1c4.9,0.4,5.4,1.9,4.5,3.4l1.5,0.4c5.5-2.8,13.7-6.7,20.5-7.9l3.5-31.3h-31.3l-4,35.9
	C227.6-38.1,229.4-38.3,231.2-38.1L231.2-38.1z"/>
<g>
	<path class="st2" d="M115.2-188.6c0,0-14,82.5,26.7,76.5s100.7-20.3,95,40"/>
	<path class="st2" d="M174.4-147c0,0,88.5,30.2,101.1,35.6c0,0-0.6-72.3-6.3-77.2c-5.7-4.8-16.4-23.1-5-28.3c0,0-9.3-23.9-3-23.5
		c6.3,0.3,7.7,10.3,17,12.3s108,144,56.7,186.1c-36.2,29.7-73.7,25.3-73.7,25.3"/>
</g>
</svg>
